<?xml version="1.0" encoding="UTF-8"?>
<svg width="2600px" height="958px" viewBox="0 0 2600 958" version="1.1" xmlns="http://www.w3.org/2000/svg" xmlns:xlink="http://www.w3.org/1999/xlink">
    <!-- Generator: Sketch 59.1 (86144) - https://sketch.com -->
    <title>XL-V3@0.5x</title>
    <desc>Created with Sketch.</desc>
    <defs>
        <path d="M0.782034909,182.546801 L376.622429,182.546801 C373.569793,81.5421547 290.601526,0.591355299 188.702232,0.591355299 L188.702232,0.591355299 C86.800809,0.591355299 3.83467107,81.5421547 0.782034909,182.546801 L0.782034909,182.546801 Z" id="path-1"></path>
        <path d="M0.782034909,182.546801 L376.622429,182.546801 C373.569793,81.5421547 290.601526,0.591355299 188.702232,0.591355299 L188.702232,0.591355299 C86.800809,0.591355299 3.83467107,81.5421547 0.782034909,182.546801 L0.782034909,182.546801 Z" id="path-3"></path>
        <path d="M0.782034909,182.546801 L376.622429,182.546801 C373.569793,81.5421547 290.601526,0.591355299 188.702232,0.591355299 L188.702232,0.591355299 C86.800809,0.591355299 3.83467107,81.5421547 0.782034909,182.546801 L0.782034909,182.546801 Z" id="path-5"></path>
        <path d="M0.782034909,182.546801 L376.622429,182.546801 C373.569793,81.5421547 290.601526,0.591355299 188.702232,0.591355299 L188.702232,0.591355299 C86.800809,0.591355299 3.83467107,81.5421547 0.782034909,182.546801 L0.782034909,182.546801 Z" id="path-7"></path>
        <path d="M0.782034909,182.546801 L376.622429,182.546801 C373.569793,81.5421547 290.601526,0.591355299 188.702232,0.591355299 L188.702232,0.591355299 C86.800809,0.591355299 3.83467107,81.5421547 0.782034909,182.546801 L0.782034909,182.546801 Z" id="path-9"></path>
        <path d="M0.782034909,182.546801 L376.622429,182.546801 C373.569793,81.5421547 290.601526,0.591355299 188.702232,0.591355299 L188.702232,0.591355299 C86.800809,0.591355299 3.83467107,81.5421547 0.782034909,182.546801 L0.782034909,182.546801 Z" id="path-11"></path>
        <path d="M0.782034909,182.546801 L376.622429,182.546801 C373.569793,81.5421547 290.601526,0.591355299 188.702232,0.591355299 L188.702232,0.591355299 C86.800809,0.591355299 3.83467107,81.5421547 0.782034909,182.546801 L0.782034909,182.546801 Z" id="path-13"></path>
        <path d="M0.782034909,182.546801 L376.622429,182.546801 C373.569793,81.5421547 290.601526,0.591355299 188.702232,0.591355299 L188.702232,0.591355299 C86.800809,0.591355299 3.83467107,81.5421547 0.782034909,182.546801 L0.782034909,182.546801 Z" id="path-15"></path>
        <path d="M0.782034909,182.546801 L376.622429,182.546801 C373.569793,81.5421547 290.601526,0.591355299 188.702232,0.591355299 L188.702232,0.591355299 C86.800809,0.591355299 3.83467107,81.5421547 0.782034909,182.546801 L0.782034909,182.546801 Z" id="path-17"></path>
        <path d="M0.782034909,182.546801 L376.622429,182.546801 C373.569793,81.5421547 290.601526,0.591355299 188.702232,0.591355299 L188.702232,0.591355299 C86.800809,0.591355299 3.83467107,81.5421547 0.782034909,182.546801 L0.782034909,182.546801 Z" id="path-19"></path>
        <path d="M0.782034909,182.546801 L376.622429,182.546801 C373.569793,81.5421547 290.601526,0.591355299 188.702232,0.591355299 L188.702232,0.591355299 C86.800809,0.591355299 3.83467107,81.5421547 0.782034909,182.546801 L0.782034909,182.546801 Z" id="path-21"></path>
        <path d="M0.782034909,182.546801 L376.622429,182.546801 C373.569793,81.5421547 290.601526,0.591355299 188.702232,0.591355299 L188.702232,0.591355299 C86.800809,0.591355299 3.83467107,81.5421547 0.782034909,182.546801 L0.782034909,182.546801 Z" id="path-23"></path>
        <path d="M0.782034909,182.546801 L376.622429,182.546801 C373.569793,81.5421547 290.601526,0.591355299 188.702232,0.591355299 L188.702232,0.591355299 C86.800809,0.591355299 3.83467107,81.5421547 0.782034909,182.546801 L0.782034909,182.546801 Z" id="path-25"></path>
        <path d="M0.782034909,182.546801 L376.622429,182.546801 C373.569793,81.5421547 290.601526,0.591355299 188.702232,0.591355299 L188.702232,0.591355299 C86.800809,0.591355299 3.83467107,81.5421547 0.782034909,182.546801 L0.782034909,182.546801 Z" id="path-27"></path>
        <path d="M0.782034909,182.546801 L376.622429,182.546801 C373.569793,81.5421547 290.601526,0.591355299 188.702232,0.591355299 L188.702232,0.591355299 C86.800809,0.591355299 3.83467107,81.5421547 0.782034909,182.546801 L0.782034909,182.546801 Z" id="path-29"></path>
        <path d="M0.782034909,182.546801 L376.622429,182.546801 C373.569793,81.5421547 290.601526,0.591355299 188.702232,0.591355299 L188.702232,0.591355299 C86.800809,0.591355299 3.83467107,81.5421547 0.782034909,182.546801 L0.782034909,182.546801 Z" id="path-31"></path>
        <path d="M0.782034909,182.546801 L376.622429,182.546801 C373.569793,81.5421547 290.601526,0.591355299 188.702232,0.591355299 L188.702232,0.591355299 C86.800809,0.591355299 3.83467107,81.5421547 0.782034909,182.546801 L0.782034909,182.546801 Z" id="path-33"></path>
        <path d="M0.782034909,182.546801 L376.622429,182.546801 C373.569793,81.5421547 290.601526,0.591355299 188.702232,0.591355299 L188.702232,0.591355299 C86.800809,0.591355299 3.83467107,81.5421547 0.782034909,182.546801 L0.782034909,182.546801 Z" id="path-35"></path>
        <path d="M0.782034909,182.546801 L376.622429,182.546801 C373.569793,81.5421547 290.601526,0.591355299 188.702232,0.591355299 L188.702232,0.591355299 C86.800809,0.591355299 3.83467107,81.5421547 0.782034909,182.546801 L0.782034909,182.546801 Z" id="path-37"></path>
        <path d="M0.782034909,182.546801 L376.622429,182.546801 C373.569793,81.5421547 290.601526,0.591355299 188.702232,0.591355299 L188.702232,0.591355299 C86.800809,0.591355299 3.83467107,81.5421547 0.782034909,182.546801 L0.782034909,182.546801 Z" id="path-39"></path>
        <path d="M0.782034909,182.546801 L376.622429,182.546801 C373.569793,81.5421547 290.601526,0.591355299 188.702232,0.591355299 L188.702232,0.591355299 C86.800809,0.591355299 3.83467107,81.5421547 0.782034909,182.546801 L0.782034909,182.546801 Z" id="path-41"></path>
        <path d="M0.782034909,182.546801 L376.622429,182.546801 C373.569793,81.5421547 290.601526,0.591355299 188.702232,0.591355299 L188.702232,0.591355299 C86.800809,0.591355299 3.83467107,81.5421547 0.782034909,182.546801 L0.782034909,182.546801 Z" id="path-43"></path>
        <path d="M0.782034909,182.546801 L376.622429,182.546801 C373.569793,81.5421547 290.601526,0.591355299 188.702232,0.591355299 L188.702232,0.591355299 C86.800809,0.591355299 3.83467107,81.5421547 0.782034909,182.546801 L0.782034909,182.546801 Z" id="path-45"></path>
        <path d="M0.782034909,182.546801 L376.622429,182.546801 C373.569793,81.5421547 290.601526,0.591355299 188.702232,0.591355299 L188.702232,0.591355299 C86.800809,0.591355299 3.83467107,81.5421547 0.782034909,182.546801 L0.782034909,182.546801 Z" id="path-47"></path>
        <path d="M0.782034909,182.546801 L376.622429,182.546801 C373.569793,81.5421547 290.601526,0.591355299 188.702232,0.591355299 L188.702232,0.591355299 C86.800809,0.591355299 3.83467107,81.5421547 0.782034909,182.546801 L0.782034909,182.546801 Z" id="path-49"></path>
        <path d="M0.782034909,182.546801 L376.622429,182.546801 C373.569793,81.5421547 290.601526,0.591355299 188.702232,0.591355299 L188.702232,0.591355299 C86.800809,0.591355299 3.83467107,81.5421547 0.782034909,182.546801 L0.782034909,182.546801 Z" id="path-51"></path>
        <path d="M0.782034909,182.546801 L376.622429,182.546801 C373.569793,81.5421547 290.601526,0.591355299 188.702232,0.591355299 L188.702232,0.591355299 C86.800809,0.591355299 3.83467107,81.5421547 0.782034909,182.546801 L0.782034909,182.546801 Z" id="path-53"></path>
        <path d="M0.782034909,182.546801 L376.622429,182.546801 C373.569793,81.5421547 290.601526,0.591355299 188.702232,0.591355299 L188.702232,0.591355299 C86.800809,0.591355299 3.83467107,81.5421547 0.782034909,182.546801 L0.782034909,182.546801 Z" id="path-55"></path>
        <path d="M0.782034909,182.546801 L376.622429,182.546801 C373.569793,81.5421547 290.601526,0.591355299 188.702232,0.591355299 L188.702232,0.591355299 C86.800809,0.591355299 3.83467107,81.5421547 0.782034909,182.546801 L0.782034909,182.546801 Z" id="path-57"></path>
        <path d="M0.782034909,182.546801 L376.622429,182.546801 C373.569793,81.5421547 290.601526,0.591355299 188.702232,0.591355299 L188.702232,0.591355299 C86.800809,0.591355299 3.83467107,81.5421547 0.782034909,182.546801 L0.782034909,182.546801 Z" id="path-59"></path>
    </defs>
    <g id="XL-V3" stroke="none" stroke-width="1" fill="none" fill-rule="evenodd">
        <rect fill="#1D4354" x="0" y="0" width="2600" height="958"></rect>
        <g id="BG-XL" transform="translate(2.000000, 0.000000)">
            <g id="Group-4" transform="translate(2090.953527, 0.000000)" fill="#73E6FF">
                <path d="M507,491.712855 C255.959464,500.29822 35.4352614,315.443268 3.81149937,60.7636029 C1.27536761,40.3431678 0.0267729841,20.0617966 0,0 L507,0 L507,491.712855 Z" id="Fill-2"></path>
            </g>
            <g id="Group-95" transform="translate(1906.953527, 586.000000)">
                <g id="Group-7">
                    <mask id="mask-2" fill="white">
                        <use xlink:href="#path-1"></use>
                    </mask>
                    <g id="Clip-6"></g>
                    <polygon id="Fill-5" fill="#336278" mask="url(#mask-2)" points="364.136849 370.999607 357.976229 369.422505 488.652047 -139.456333 494.812667 -137.877106"></polygon>
                </g>
                <g id="Group-10">
                    <mask id="mask-4" fill="white">
                        <use xlink:href="#path-3"></use>
                    </mask>
                    <g id="Clip-9"></g>
                    <polygon id="Fill-8" fill="#336278" mask="url(#mask-4)" points="338.826791 370.999607 332.666171 369.422505 463.341989 -139.456333 469.502609 -137.877106"></polygon>
                </g>
                <g id="Group-13">
                    <mask id="mask-6" fill="white">
                        <use xlink:href="#path-5"></use>
                    </mask>
                    <g id="Clip-12"></g>
                    <polygon id="Fill-11" fill="#336278" mask="url(#mask-6)" points="313.51354 370.999607 307.35292 369.422505 438.032996 -139.456333 444.193616 -137.877106"></polygon>
                </g>
                <g id="Group-16">
                    <mask id="mask-8" fill="white">
                        <use xlink:href="#path-7"></use>
                    </mask>
                    <g id="Clip-15"></g>
                    <polygon id="Fill-14" fill="#336278" mask="url(#mask-8)" points="288.203269 370.999607 282.042649 369.422505 412.720596 -139.456333 418.879088 -137.877106"></polygon>
                </g>
                <g id="Group-19">
                    <mask id="mask-10" fill="white">
                        <use xlink:href="#path-9"></use>
                    </mask>
                    <g id="Clip-18"></g>
                    <polygon id="Fill-17" fill="#336278" mask="url(#mask-10)" points="262.893637 370.999607 256.733017 369.422505 387.408836 -139.456333 393.569456 -137.877106"></polygon>
                </g>
                <g id="Group-22">
                    <mask id="mask-12" fill="white">
                        <use xlink:href="#path-11"></use>
                    </mask>
                    <g id="Clip-21"></g>
                    <polygon id="Fill-20" fill="#336278" mask="url(#mask-12)" points="237.580386 370.999607 231.419766 369.422505 362.099842 -139.456333 368.260462 -137.877106"></polygon>
                </g>
                <g id="Group-25">
                    <mask id="mask-14" fill="white">
                        <use xlink:href="#path-13"></use>
                    </mask>
                    <g id="Clip-24"></g>
                    <polygon id="Fill-23" fill="#336278" mask="url(#mask-14)" points="212.270329 370.999607 206.109709 369.422505 336.787656 -139.456333 342.946147 -137.877106"></polygon>
                </g>
                <g id="Group-28">
                    <mask id="mask-16" fill="white">
                        <use xlink:href="#path-15"></use>
                    </mask>
                    <g id="Clip-27"></g>
                    <polygon id="Fill-26" fill="#336278" mask="url(#mask-16)" points="186.960697 370.999607 180.800077 369.422505 311.475895 -139.456333 317.636515 -137.877106"></polygon>
                </g>
                <g id="Group-31">
                    <mask id="mask-18" fill="white">
                        <use xlink:href="#path-17"></use>
                    </mask>
                    <g id="Clip-30"></g>
                    <polygon id="Fill-29" fill="#336278" mask="url(#mask-18)" points="161.647233 370.999607 155.486613 369.422505 286.166688 -139.456333 292.327308 -137.877106"></polygon>
                </g>
                <g id="Group-34">
                    <mask id="mask-20" fill="white">
                        <use xlink:href="#path-19"></use>
                    </mask>
                    <g id="Clip-33"></g>
                    <polygon id="Fill-32" fill="#336278" mask="url(#mask-20)" points="136.337175 370.999607 130.176555 369.422505 260.854502 -139.456333 267.012993 -137.877106"></polygon>
                </g>
                <g id="Group-37">
                    <mask id="mask-22" fill="white">
                        <use xlink:href="#path-21"></use>
                    </mask>
                    <g id="Clip-36"></g>
                    <polygon id="Fill-35" fill="#336278" mask="url(#mask-22)" points="111.026053 370.999607 104.865433 369.422505 235.54338 -139.456333 241.704 -137.877106"></polygon>
                </g>
                <g id="Group-40">
                    <mask id="mask-24" fill="white">
                        <use xlink:href="#path-23"></use>
                    </mask>
                    <g id="Clip-39"></g>
                    <polygon id="Fill-38" fill="#336278" mask="url(#mask-24)" points="85.7142919 370.999607 79.5536719 369.422505 210.233748 -139.456333 216.394368 -137.877106"></polygon>
                </g>
                <g id="Group-43">
                    <mask id="mask-26" fill="white">
                        <use xlink:href="#path-25"></use>
                    </mask>
                    <g id="Clip-42"></g>
                    <polygon id="Fill-41" fill="#336278" mask="url(#mask-26)" points="60.4040212 370.999607 54.2434012 369.422505 184.921348 -139.456333 191.079839 -137.877106"></polygon>
                </g>
                <g id="Group-46">
                    <mask id="mask-28" fill="white">
                        <use xlink:href="#path-27"></use>
                    </mask>
                    <g id="Clip-45"></g>
                    <polygon id="Fill-44" fill="#336278" mask="url(#mask-28)" points="35.092899 370.999607 28.932279 369.422505 159.610226 -139.456333 165.770846 -137.877106"></polygon>
                </g>
                <g id="Group-49">
                    <mask id="mask-30" fill="white">
                        <use xlink:href="#path-29"></use>
                    </mask>
                    <g id="Clip-48"></g>
                    <polygon id="Fill-47" fill="#336278" mask="url(#mask-30)" points="9.78113819 370.999607 3.62051821 369.422505 134.298465 -139.456333 140.459085 -137.877106"></polygon>
                </g>
                <g id="Group-52">
                    <mask id="mask-32" fill="white">
                        <use xlink:href="#path-31"></use>
                    </mask>
                    <g id="Clip-51"></g>
                    <polygon id="Fill-50" fill="#336278" mask="url(#mask-32)" points="-14.8149348 370.999607 -20.9755548 369.422505 109.702392 -139.456333 115.863012 -137.877106"></polygon>
                </g>
                <g id="Group-55">
                    <mask id="mask-34" fill="white">
                        <use xlink:href="#path-33"></use>
                    </mask>
                    <g id="Clip-54"></g>
                    <polygon id="Fill-53" fill="#336278" mask="url(#mask-34)" points="-40.1249927 370.999607 -46.2856126 369.422505 84.3923344 -139.456333 90.5508256 -137.877106"></polygon>
                </g>
                <g id="Group-58">
                    <mask id="mask-36" fill="white">
                        <use xlink:href="#path-35"></use>
                    </mask>
                    <g id="Clip-57"></g>
                    <polygon id="Fill-56" fill="#336278" mask="url(#mask-36)" points="-65.4363277 370.999607 -71.5969477 369.422505 59.0809993 -139.456333 65.2416193 -137.877106"></polygon>
                </g>
                <g id="Group-61">
                    <mask id="mask-38" fill="white">
                        <use xlink:href="#path-37"></use>
                    </mask>
                    <g id="Clip-60"></g>
                    <polygon id="Fill-59" fill="#336278" mask="url(#mask-38)" points="-90.7480885 370.999607 -96.9087085 369.422505 33.7692385 -139.456333 39.9298585 -137.877106"></polygon>
                </g>
                <g id="Group-64">
                    <mask id="mask-40" fill="white">
                        <use xlink:href="#path-39"></use>
                    </mask>
                    <g id="Clip-63"></g>
                    <polygon id="Fill-62" fill="#336278" mask="url(#mask-40)" points="-116.058146 370.999607 -122.218766 369.422505 8.45918069 -139.456333 14.6176719 -137.877106"></polygon>
                </g>
                <g id="Group-67">
                    <mask id="mask-42" fill="white">
                        <use xlink:href="#path-41"></use>
                    </mask>
                    <g id="Clip-66"></g>
                    <polygon id="Fill-65" fill="#336278" mask="url(#mask-42)" points="-141.369269 370.999607 -147.529889 369.422505 -16.8519415 -139.456333 -10.6913215 -137.877106"></polygon>
                </g>
                <g id="Group-70">
                    <mask id="mask-44" fill="white">
                        <use xlink:href="#path-43"></use>
                    </mask>
                    <g id="Clip-69"></g>
                    <polygon id="Fill-68" fill="#336278" mask="url(#mask-44)" points="-166.681029 370.999607 -172.841649 369.422505 -42.1637023 -139.456333 -36.0030823 -137.877106"></polygon>
                </g>
                <g id="Group-73">
                    <mask id="mask-46" fill="white">
                        <use xlink:href="#path-45"></use>
                    </mask>
                    <g id="Clip-72"></g>
                    <polygon id="Fill-71" fill="#336278" mask="url(#mask-46)" points="-191.9913 370.999607 -198.15192 369.422505 -67.473973 -139.456333 -61.3154818 -137.877106"></polygon>
                </g>
                <g id="Group-76">
                    <mask id="mask-48" fill="white">
                        <use xlink:href="#path-47"></use>
                    </mask>
                    <g id="Clip-75"></g>
                    <polygon id="Fill-74" fill="#336278" mask="url(#mask-48)" points="-217.302422 370.999607 -223.463042 369.422505 -92.7850952 -139.456333 -86.6244752 -137.877106"></polygon>
                </g>
                <g id="Group-79">
                    <mask id="mask-50" fill="white">
                        <use xlink:href="#path-49"></use>
                    </mask>
                    <g id="Clip-78"></g>
                    <polygon id="Fill-77" fill="#336278" mask="url(#mask-50)" points="-242.614183 370.999607 -248.774803 369.422505 -118.096856 -139.456333 -111.936236 -137.877106"></polygon>
                </g>
                <g id="Group-82">
                    <mask id="mask-52" fill="white">
                        <use xlink:href="#path-51"></use>
                    </mask>
                    <g id="Clip-81"></g>
                    <polygon id="Fill-80" fill="#336278" mask="url(#mask-52)" points="-267.924241 370.999607 -274.084861 369.422505 -143.406914 -139.456333 -137.248423 -137.877106"></polygon>
                </g>
                <g id="Group-85">
                    <mask id="mask-54" fill="white">
                        <use xlink:href="#path-53"></use>
                    </mask>
                    <g id="Clip-84"></g>
                    <polygon id="Fill-83" fill="#336278" mask="url(#mask-54)" points="-293.235576 370.999607 -299.396196 369.422505 -168.718249 -139.456333 -162.557629 -137.877106"></polygon>
                </g>
                <g id="Group-88">
                    <mask id="mask-56" fill="white">
                        <use xlink:href="#path-55"></use>
                    </mask>
                    <g id="Clip-87"></g>
                    <polygon id="Fill-86" fill="#336278" mask="url(#mask-56)" points="-318.545634 370.999607 -324.706254 369.422505 -194.030435 -139.456333 -187.869815 -137.877106"></polygon>
                </g>
                <g id="Group-91">
                    <mask id="mask-58" fill="white">
                        <use xlink:href="#path-57"></use>
                    </mask>
                    <g id="Clip-90"></g>
                    <polygon id="Fill-89" fill="#336278" mask="url(#mask-58)" points="-343.857395 370.999607 -350.018015 369.422505 -219.340067 -139.456333 -213.181576 -137.877106"></polygon>
                </g>
                <g id="Group-94">
                    <mask id="mask-60" fill="white">
                        <use xlink:href="#path-59"></use>
                    </mask>
                    <g id="Clip-93"></g>
                    <polygon id="Fill-92" fill="#336278" mask="url(#mask-60)" points="-369.169155 370.999607 -375.329775 369.422505 -244.651828 -139.456333 -238.491208 -137.877106"></polygon>
                </g>
            </g>
            <g id="Group-107" transform="translate(0.953527, 60.000000)">
                <path d="M184.136401,349.563535 C119.275267,349.563535 57.2181594,361.541907 5.68434189e-14,383.352134 L5.68434189e-14,897.563535 L701.160795,897.563535 C701.701571,887.862076 702,878.096423 702,868.260556 C702,581.792698 470.14508,349.563535 184.136401,349.563535" id="Fill-105" fill="#2B5468"></path>
                <path d="M1942.23588,80.6894595 C1942.23588,125.254412 1906.14221,161.381055 1861.61794,161.381055 C1817.09367,161.381055 1781,125.254412 1781,80.6894595 C1781,36.1245072 1817.09367,1.42108547e-14 1861.61794,1.42108547e-14 C1906.14221,1.42108547e-14 1942.23588,36.1245072 1942.23588,80.6894595" id="Fill-106" fill="#F3756C"></path>
            </g>
        </g>
    </g>
</svg>